<svg xmlns="http://www.w3.org/2000/svg" viewBox="0 0 259 55"> <g id="logo"> <path fill="rgb(255, 255, 255)" d="M51.535,18.386 L49.751,28.127 C49.248,27.991 48.768,27.899 48.311,27.852 C47.853,27.807 47.42,27.785 47.007,27.785 C45.406,27.785 44.057,28.057 42.96,28.607 C41.861,29.156 40.959,29.831 40.249,30.63 C39.541,31.432 39.016,32.289 38.672,33.203 C38.328,34.119 38.089,34.918 37.951,35.606 L34.865,53.168 L23.888,53.168 L28.538,27.236 L17.013,27.236 L12.417,53.168 L1.646,53.168 L6.242,27.236 L0,27.236 L1.44,19.004 L7.476,19.004 L8.164,15.502 C8.528,13.538 9.055,11.616 9.741,9.74 C10.427,7.865 11.398,6.207 12.658,4.767 C13.915,3.327 15.505,2.172 17.426,1.302 C19.346,0.435 21.703,0 24.492,0 C25.405,0 26.321,0.058 27.237,0.172 C28.15,0.286 28.952,0.458 29.638,0.686 L27.648,9.468 C26.779,9.102 25.819,8.919 24.767,8.919 C23.76,8.919 22.925,9.102 22.264,9.468 C21.598,9.834 21.038,10.326 20.582,10.943 C20.124,11.56 19.769,12.258 19.519,13.036 C19.267,13.814 19.072,14.591 18.936,15.369 L18.317,19.006 L40.215,19.006 C40.215,19.234 40.193,19.564 40.146,20 C40.101,20.435 40.043,20.891 39.976,21.373 C39.907,21.851 39.838,22.333 39.768,22.811 C39.701,23.293 39.643,23.693 39.598,24.012 L39.734,24.012 C40.833,22.275 42.146,20.856 43.678,19.76 C45.21,18.661 47.052,18.112 49.201,18.112 C49.614,18.112 50.036,18.134 50.472,18.181 C50.905,18.228 51.26,18.295 51.535,18.386 L51.535,18.386 Z M87.643,26.723 C88.534,28.574 88.981,30.667 88.981,32.998 C88.981,35.879 88.501,38.603 87.538,41.163 C86.578,43.725 85.182,45.964 83.355,47.885 C81.524,49.806 79.317,51.329 76.733,52.45 C74.149,53.569 71.21,54.129 67.918,54.129 C65.448,54.129 63.15,53.785 61.022,53.102 C58.896,52.414 57.067,51.418 55.535,50.116 C54.001,48.814 52.79,47.233 51.897,45.384 C51.006,43.53 50.559,41.438 50.559,39.104 C50.559,36.27 51.039,33.57 52.002,31.011 C52.962,28.447 54.345,26.207 56.151,24.287 C57.958,22.364 60.142,20.834 62.703,19.689 C65.265,18.548 68.168,17.974 71.415,17.974 C73.93,17.974 76.263,18.318 78.414,19.006 C80.562,19.689 82.416,20.685 83.97,21.99 C85.526,23.293 86.75,24.869 87.643,26.723 L87.643,26.723 Z M78.141,34.164 C78.141,32.107 77.511,30.392 76.254,29.019 C74.997,27.648 73.223,26.962 70.937,26.962 C69.474,26.962 68.148,27.259 66.957,27.853 C65.769,28.447 64.762,29.251 63.94,30.256 C63.116,31.261 62.475,32.427 62.019,33.753 C61.561,35.08 61.331,36.475 61.331,37.938 C61.331,39.997 61.95,41.701 63.185,43.05 C64.42,44.399 66.18,45.073 68.467,45.073 C69.932,45.073 71.256,44.789 72.447,44.215 C73.635,43.643 74.653,42.855 75.5,41.848 C76.346,40.843 76.998,39.675 77.456,38.349 C77.911,37.023 78.141,35.629 78.141,34.164 L78.141,34.164 Z M125.421,21.198 C124.53,20.238 123.398,19.483 122.027,18.933 C120.654,18.386 119.008,18.111 117.087,18.111 C114.709,18.111 112.603,18.66 110.776,19.759 C108.945,20.856 107.482,22.251 106.385,23.944 L106.247,23.944 C106.339,23.211 106.441,22.341 106.555,21.336 C106.669,20.331 106.749,19.552 106.796,19.005 L96.299,19.005 C96.205,20.101 96.058,21.336 95.852,22.708 C95.646,24.08 95.45,25.203 95.269,26.071 L90.535,53.169 L101.511,53.169 L104.805,34.696 C104.988,33.691 105.274,32.735 105.663,31.822 C106.052,30.909 106.554,30.109 107.173,29.426 C107.789,28.743 108.5,28.207 109.299,27.818 C110.098,27.429 111.003,27.237 112.01,27.237 C113.701,27.237 114.88,27.681 115.543,28.573 C116.204,29.462 116.537,30.543 116.537,31.822 C116.537,32.686 116.423,33.647 116.193,34.696 L112.97,53.169 L123.946,53.169 L127.651,32.177 C127.787,31.583 127.879,30.976 127.926,30.359 C127.971,29.74 127.993,29.113 127.993,28.472 C127.993,27.099 127.788,25.785 127.377,24.526 C126.966,23.27 126.314,22.158 125.421,21.198 L125.421,21.198 Z M147.362,9.948 L136.658,9.948 L135.081,19.005 L133.777,27.237 L131.171,41.749 C131.033,42.392 130.93,43.069 130.863,43.779 C130.794,44.491 130.76,45.121 130.76,45.671 C130.76,48.561 131.707,50.669 133.605,52 C135.503,53.327 138.1,53.992 141.392,53.992 C142.444,53.992 143.554,53.889 144.72,53.684 C145.886,53.479 146.788,53.237 147.431,52.965 L148.458,45.075 C148.047,45.167 147.578,45.258 147.053,45.35 C146.526,45.442 145.988,45.488 145.441,45.488 C144.342,45.488 143.474,45.28 142.833,44.867 C142.192,44.454 141.873,43.674 141.873,42.527 C141.873,42.297 141.884,42.009 141.909,41.665 C141.931,41.321 141.965,40.988 142.012,40.667 L144.482,27.239 L151.548,27.239 L153.058,19.007 L145.784,19.007 L147.362,9.948 L147.362,9.948 Z M188.387,26.207 C189.119,27.991 189.486,30.05 189.486,32.382 C189.486,33.204 189.406,34.245 189.245,35.504 C189.084,36.761 188.868,37.938 188.593,39.037 L164.1,39.037 C164.055,39.22 164.033,39.426 164.033,39.653 C164.033,40.613 164.25,41.471 164.685,42.226 C165.118,42.981 165.69,43.622 166.4,44.147 C167.108,44.674 167.907,45.074 168.801,45.348 C169.692,45.623 170.619,45.759 171.579,45.759 C173.316,45.759 174.848,45.44 176.175,44.799 C177.502,44.16 178.69,43.289 179.744,42.193 L186.671,47.613 C184.476,49.944 182.028,51.626 179.33,52.656 C176.632,53.683 173.727,54.199 170.618,54.199 C168.24,54.199 166.031,53.866 163.996,53.205 C161.962,52.539 160.188,51.557 158.681,50.253 C157.171,48.949 155.981,47.339 155.112,45.416 C154.243,43.495 153.808,41.302 153.808,38.832 C153.808,35.904 154.324,33.171 155.353,30.632 C156.38,28.095 157.798,25.889 159.605,24.013 C161.412,22.137 163.574,20.663 166.088,19.587 C168.603,18.515 171.372,17.975 174.389,17.975 C176.631,17.975 178.677,18.297 180.53,18.935 C182.381,19.578 183.971,20.503 185.298,21.715 C186.627,22.926 187.654,24.423 188.387,26.207 L188.387,26.207 Z M179.744,30.939 C179.744,29.432 179.206,28.174 178.132,27.167 C177.056,26.162 175.512,25.66 173.5,25.66 C172.265,25.66 171.155,25.874 170.172,26.31 C169.187,26.745 168.33,27.281 167.599,27.922 C166.866,28.563 166.272,29.273 165.815,30.05 C165.358,30.827 165.038,31.582 164.855,32.312 L179.675,32.312 C179.72,32.084 179.744,31.854 179.744,31.626 C179.744,31.398 179.744,31.172 179.744,30.939 L179.744,30.939 Z M228.656,26.207 C229.389,27.991 229.755,30.05 229.755,32.382 C229.755,33.204 229.675,34.245 229.514,35.504 C229.353,36.761 229.137,37.938 228.862,39.037 L204.37,39.037 C204.325,39.22 204.303,39.426 204.303,39.653 C204.303,40.613 204.52,41.471 204.955,42.226 C205.388,42.981 205.96,43.622 206.67,44.147 C207.378,44.674 208.177,45.074 209.071,45.348 C209.962,45.623 210.889,45.759 211.849,45.759 C213.586,45.759 215.118,45.44 216.445,44.799 C217.772,44.16 218.96,43.289 220.014,42.193 L226.941,47.613 C224.746,49.944 222.298,51.626 219.6,52.656 C216.902,53.683 213.997,54.199 210.888,54.199 C208.51,54.199 206.301,53.866 204.266,53.205 C202.232,52.539 200.458,51.557 198.951,50.253 C197.441,48.949 196.251,47.339 195.382,45.416 C194.513,43.495 194.078,41.302 194.078,38.832 C194.078,35.904 194.594,33.171 195.623,30.632 C196.65,28.095 198.068,25.889 199.875,24.013 C201.682,22.137 203.843,20.663 206.358,19.587 C208.873,18.515 211.642,17.975 214.659,17.975 C216.901,17.975 218.947,18.297 220.8,18.935 C222.651,19.578 224.241,20.503 225.568,21.715 C226.895,22.927 227.924,24.423 228.656,26.207 L228.656,26.207 Z M220.014,30.939 C220.014,29.432 219.476,28.174 218.402,27.167 C217.326,26.162 215.782,25.66 213.77,25.66 C212.535,25.66 211.425,25.874 210.442,26.31 C209.457,26.745 208.6,27.281 207.869,27.922 C207.137,28.563 206.542,29.273 206.085,30.05 C205.628,30.827 205.308,31.582 205.125,32.312 L219.945,32.312 C219.99,32.084 220.014,31.854 220.014,31.626 C220.014,31.398 220.014,31.172 220.014,30.939 L220.014,30.939 Z M257.827,18.181 C257.392,18.134 256.969,18.112 256.556,18.112 C254.408,18.112 252.565,18.661 251.033,19.76 C249.501,20.857 248.188,22.275 247.089,24.012 L246.953,24.012 C246.998,23.693 247.056,23.293 247.123,22.811 C247.192,22.333 247.261,21.851 247.331,21.373 C247.398,20.891 247.456,20.435 247.501,20 C247.548,19.565 247.57,19.234 247.57,19.006 L237.143,19.006 C237.049,20.102 236.902,21.337 236.696,22.709 C236.49,24.081 236.294,25.204 236.113,26.072 L231.242,53.17 L242.218,53.17 L245.304,35.608 C245.442,34.92 245.681,34.121 246.025,33.205 C246.369,32.292 246.894,31.434 247.602,30.632 C248.312,29.833 249.214,29.158 250.313,28.609 C251.409,28.06 252.758,27.787 254.36,27.787 C254.773,27.787 255.206,27.809 255.664,27.854 C256.122,27.901 256.602,27.992 257.104,28.129 L258.888,18.388 C258.615,18.295 258.26,18.228 257.827,18.181 L257.827,18.181 Z"></path> </g> </svg>